<svg width="1440" height="60" viewBox="0 0 1440 60" fill="none" xmlns="http://www.w3.org/2000/svg">
<path d="M1440 0L1440 60.0001L-2.62269e-06 60L0 -6.29444e-05L1440 0Z" fill="#D84E00"/>
<path d="M609.181 10.5625L597.458 29.3817L609.181 48.2009H598.692L590.053 34.3179H579.379V48.2009H570V10.5625H579.379V24.4455H590.053L598.692 10.5625H609.181Z" fill="#101010"/>
<path d="M691.329 10.5625H700.892V48.2009H691.329V34.2562H671.09V48.2009H661.65V10.5625H671.09V24.4455H691.329V10.5625Z" fill="#101010"/>
<path d="M733.368 32.7753H707.083V22.903H733.368V32.7753Z" fill="#101010"/>
<path d="M778.742 10.5625L767.019 29.3817L778.742 48.2009H768.253L759.614 34.3179H748.94V48.2009H739.561V10.5625H748.94V24.4455H759.614L768.253 10.5625H778.742Z" fill="#101010"/>
<path d="M860.889 10.5625H870.453V48.2009H860.889V34.2562H840.651V48.2009H831.211V10.5625H840.651V24.4455H860.889V10.5625Z" fill="#101010"/>
<path d="M659.571 28.6228C659.571 39.272 647.007 47.9048 631.51 47.9048C616.012 47.9048 603.448 39.272 603.448 28.6228C603.448 17.9737 616.012 9.34082 631.51 9.34082C647.007 9.34082 659.571 17.9737 659.571 28.6228Z" fill="white"/>
<path d="M829.038 28.4832C829.038 39.1323 816.474 47.7651 800.976 47.7651C785.479 47.7651 772.915 39.1323 772.915 28.4832C772.915 17.834 785.479 9.20117 800.976 9.20117C816.474 9.20117 829.038 17.834 829.038 28.4832Z" fill="white"/>
<path d="M637.858 28.6228C637.858 39.272 635.015 47.9048 631.509 47.9048C628.002 47.9048 625.159 39.272 625.159 28.6228C625.159 17.9737 628.002 9.34082 631.509 9.34082C635.015 9.34082 637.858 17.9737 637.858 28.6228Z" fill="#101010"/>
<path d="M807.327 28.4832C807.327 39.1323 804.484 47.7651 800.977 47.7651C797.471 47.7651 794.628 39.1323 794.628 28.4832C794.628 17.834 797.471 9.20117 800.977 9.20117C804.484 9.20117 807.327 17.834 807.327 28.4832Z" fill="#101010"/>
</svg>
