<svg width="60" height="900" viewBox="0 0 60 900" fill="none" xmlns="http://www.w3.org/2000/svg">
<path d="M0 0H60V900H0V0Z" fill="#EFB852"/>
<path d="M30 425L13 346L30 346L47 346L30 425Z" fill="#ECE1CF"/>
<path d="M30 219L13 140L30 140L47 140L30 219Z" fill="#ECE1CF"/>
<path d="M30 633L13 553L30 553L47 553L30 633Z" fill="#ECE1CF"/>
<path d="M30 839L13 760L30 760L47 760L30 839Z" fill="#ECE1CF"/>
<path d="M30 268L47 346L30 346L13 346L30 268Z" fill="#ECE1CF"/>
<path d="M30 62L47 140L30 140L13 140L30 62Z" fill="#ECE1CF"/>
<path d="M30 476L47 553L30 553L13 553L30 476Z" fill="#ECE1CF"/>
<path d="M30 682L47 760L30 760L13 760L30 682Z" fill="#ECE1CF"/>
<path d="M39 243C39 248.523 34.5228 253 29 253C23.4772 253 19 248.523 19 243C19 237.477 23.4772 233 29 233C34.5228 233 39 237.477 39 243Z" fill="#ECE1CF"/>
<path d="M45 30C45 38.2843 38.2843 45 30 45C21.7157 45 15 38.2843 15 30C15 21.7157 21.7157 15 30 15C38.2843 15 45 21.7157 45 30Z" fill="#ECE1CF"/>
<path d="M45 871C45 879.284 38.2843 886 30 886C21.7157 886 15 879.284 15 871C15 862.716 21.7157 856 30 856C38.2843 856 45 862.716 45 871Z" fill="#ECE1CF"/>
<path d="M39 450C39 455.523 34.5228 460 29 460C23.4772 460 19 455.523 19 450C19 444.477 23.4772 440 29 440C34.5228 440 39 444.477 39 450Z" fill="#ECE1CF"/>
<path d="M39 656C39 661.523 34.5228 666 29 666C23.4772 666 19 661.523 19 656C19 650.477 23.4772 646 29 646C34.5228 646 39 650.477 39 656Z" fill="#ECE1CF"/>
</svg>
