<svg width="60" height="900" viewBox="0 0 60 900" fill="none" xmlns="http://www.w3.org/2000/svg">
<rect width="60" height="900" fill="#ECE1CF"/>
<circle cx="30" cy="870" r="15" fill="#D84E00"/>
<circle cx="30" cy="30" r="15" fill="#D84E00"/>
<path d="M60 60C44.087 60 28.8258 66.7955 17.5736 78.8916C6.32141 90.9877 -2.12121e-06 107.394 -2.62612e-06 124.5C-3.13103e-06 141.606 6.32141 158.012 17.5736 170.108C28.8258 182.204 44.087 189 60 189L60 60Z" fill="#517D56"/>
<path d="M60 189C44.087 189 28.8258 195.796 17.5736 207.892C6.32141 219.988 -2.11264e-06 236.394 -2.61934e-06 253.5C-3.12605e-06 270.606 6.32141 287.012 17.5736 299.108C28.8258 311.204 44.087 318 60 318L60 189Z" fill="#517D56"/>
<path d="M60 318C44.087 318 28.8258 324.796 17.5736 336.892C6.32141 348.988 -2.11692e-06 365.394 -2.62273e-06 382.5C-3.12853e-06 399.606 6.32141 416.012 17.5736 428.108C28.8258 440.204 44.087 447 60 447L60 318Z" fill="#517D56"/>
<path d="M60 447C44.087 447 28.8258 453.743 17.5736 465.745C6.32141 477.747 -2.09545e-06 494.026 -2.60576e-06 511C-3.11607e-06 527.974 6.32141 544.252 17.5736 556.255C28.8258 568.257 44.087 575 60 575L60 447Z" fill="#517D56"/>
<path d="M60 575C44.087 575 28.8258 581.796 17.5736 593.892C6.32141 605.988 -2.12121e-06 622.394 -2.62612e-06 639.5C-3.13103e-06 656.606 6.32141 673.012 17.5736 685.108C28.8258 697.204 44.087 704 60 704L60 575Z" fill="#517D56"/>
<path d="M60 704C44.087 704 28.8258 711.164 17.5736 723.917C6.32141 736.669 -2.30151e-06 753.965 -2.76862e-06 772C-3.23573e-06 790.035 6.32141 807.331 17.5736 820.083C28.8258 832.836 44.087 840 60 840L60 704Z" fill="#517D56"/>
</svg>
