<svg width="60" height="900" viewBox="0 0 60 900" fill="none" xmlns="http://www.w3.org/2000/svg">
<rect x="60" y="900" width="60" height="900" transform="rotate(180 60 900)" fill="#ECE1CF"/>
<circle cx="30" cy="30" r="15" transform="rotate(180 30 30)" fill="#D84E00"/>
<circle cx="30" cy="870" r="15" transform="rotate(180 30 870)" fill="#D84E00"/>
<path d="M9.37722e-06 840C15.913 840 31.1742 833.204 42.4264 821.108C53.6786 809.012 60 792.606 60 775.5C60 758.394 53.6786 741.988 42.4264 729.892C31.1742 717.796 15.913 711 4.76838e-07 711L9.37722e-06 840Z" fill="#517D56"/>
<path d="M9.36366e-06 711C15.913 711 31.1742 704.204 42.4264 692.108C53.6786 680.012 60 663.606 60 646.5C60 629.394 53.6786 612.988 42.4264 600.892C31.1742 588.796 15.913 582 4.76838e-07 582L9.36366e-06 711Z" fill="#517D56"/>
<path d="M9.37043e-06 582C15.913 582 31.1742 575.204 42.4264 563.108C53.6786 551.012 60 534.606 60 517.5C60 500.394 53.6786 483.988 42.4264 471.892C31.1742 459.796 15.913 453 4.76838e-07 453L9.37043e-06 582Z" fill="#517D56"/>
<path d="M9.24908e-06 453C15.913 453 31.1742 446.257 42.4264 434.255C53.6786 422.253 60 405.974 60 389C60 372.026 53.6786 355.748 42.4264 343.745C31.1742 331.743 15.913 325 4.76838e-07 325L9.24908e-06 453Z" fill="#517D56"/>
<path d="M9.37722e-06 325C15.913 325 31.1742 318.204 42.4264 306.108C53.6786 294.012 60 277.606 60 260.5C60 243.394 53.6786 226.988 42.4264 214.892C31.1742 202.796 15.913 196 4.76838e-07 196L9.37722e-06 325Z" fill="#517D56"/>
<path d="M1.02742e-05 196C15.913 196 31.1742 188.836 42.4264 176.083C53.6786 163.331 60 146.035 60 128C60 109.965 53.6786 92.6692 42.4264 79.9167C31.1742 67.1643 15.913 60 4.76838e-07 60L1.02742e-05 196Z" fill="#517D56"/>
</svg>
