<svg width="60" height="900" viewBox="0 0 60 900" fill="none" xmlns="http://www.w3.org/2000/svg">
<path d="M0 0H60V900H0V0Z" fill="#D84E00"/>
<path d="M45 870C45 878.284 38.2843 885 30 885C21.7157 885 15 878.284 15 870C15 861.716 21.7157 855 30 855C38.2843 855 45 861.716 45 870Z" fill="#ECE1CF"/>
<path d="M45 30C45 38.2843 38.2843 45 30 45C21.7157 45 15 38.2843 15 30C15 21.7157 21.7157 15 30 15C38.2843 15 45 21.7157 45 30Z" fill="#ECE1CF"/>
<path fill-rule="evenodd" clip-rule="evenodd" d="M29.9302 113.93L29.9302 87C21.2166 99.2825 15.3162 105.175 3 113.93H3.00025C15.2827 122.644 21.1748 128.544 29.9304 140.86V113.93H29.9306L29.9306 140.86C38.6443 128.578 44.5447 122.686 56.8609 113.93H56.8606C44.5782 105.217 38.6861 99.3162 29.9304 87L29.9304 113.93H29.9302Z" fill="#E594A9"/>
<path fill-rule="evenodd" clip-rule="evenodd" d="M29.9302 247.93L29.9302 221C21.2166 233.282 15.3162 239.175 3 247.93H3.00025C15.2827 256.644 21.1748 262.544 29.9304 274.86V247.93H29.9306L29.9306 274.86C38.6443 262.578 44.5447 256.686 56.8609 247.93H56.8606C44.5782 239.217 38.6861 233.316 29.9304 221L29.9304 247.93H29.9302Z" fill="#E594A9"/>
<path fill-rule="evenodd" clip-rule="evenodd" d="M29.9302 382.93L29.9302 356C21.2166 368.282 15.3162 374.175 3 382.93H3.00024C15.2827 391.644 21.1748 397.544 29.9304 409.86V382.93H29.9306L29.9306 409.86C38.6443 397.578 44.5447 391.686 56.8609 382.93H56.8606C44.5782 374.217 38.6861 368.316 29.9304 356L29.9304 382.93H29.9302Z" fill="#E594A9"/>
<path fill-rule="evenodd" clip-rule="evenodd" d="M29.9302 516.93L29.9302 490C21.2166 502.282 15.3162 508.175 3 516.93H3.00024C15.2827 525.644 21.1748 531.544 29.9304 543.86V516.93H29.9306L29.9306 543.86C38.6443 531.578 44.5447 525.686 56.8609 516.93H56.8606C44.5782 508.217 38.6861 502.316 29.9304 490L29.9304 516.93H29.9302Z" fill="#E594A9"/>
<path fill-rule="evenodd" clip-rule="evenodd" d="M29.9302 651.93L29.9302 625C21.2166 637.282 15.3162 643.175 3 651.93H3.00024C15.2827 660.644 21.1748 666.544 29.9304 678.86V651.93H29.9306L29.9306 678.86C38.6443 666.578 44.5447 660.686 56.8609 651.93H56.8606C44.5782 643.217 38.6861 637.316 29.9304 625L29.9304 651.93H29.9302Z" fill="#E594A9"/>
<path fill-rule="evenodd" clip-rule="evenodd" d="M29.9302 785.93L29.9302 759C21.2166 771.282 15.3162 777.175 3 785.93H3.00025C15.2827 794.644 21.1748 800.544 29.9304 812.86V785.93H29.9306L29.9306 812.86C38.6443 800.578 44.5447 794.686 56.8609 785.93H56.8606C44.5782 777.217 38.6861 771.316 29.9304 759L29.9304 785.93H29.9302Z" fill="#E594A9"/>
<path d="M40 181C40 186.523 35.5228 191 30 191C24.4772 191 20 186.523 20 181C20 175.477 24.4772 171 30 171C35.5228 171 40 175.477 40 181Z" fill="#EFB852"/>
<path d="M40 315.5C40 321.299 35.5228 326 30 326C24.4772 326 20 321.299 20 315.5C20 309.701 24.4772 305 30 305C35.5228 305 40 309.701 40 315.5Z" fill="#EFB852"/>
<path d="M40 450C40 455.523 35.5228 460 30 460C24.4772 460 20 455.523 20 450C20 444.477 24.4772 440 30 440C35.5228 440 40 444.477 40 450Z" fill="#EFB852"/>
<path d="M40 584.5C40 590.299 35.5228 595 30 595C24.4772 595 20 590.299 20 584.5C20 578.701 24.4772 574 30 574C35.5228 574 40 578.701 40 584.5Z" fill="#EFB852"/>
<path d="M40 719C40 724.523 35.5228 729 30 729C24.4772 729 20 724.523 20 719C20 713.477 24.4772 709 30 709C35.5228 709 40 713.477 40 719Z" fill="#EFB852"/>
</svg>
