<svg width="60" height="900" viewBox="0 0 60 900" fill="none" xmlns="http://www.w3.org/2000/svg">
<path d="M0 0H60V900H0V0Z" fill="#2D517F"/>
<path d="M45 870C45 878.284 38.2843 885 30 885C21.7157 885 15 878.284 15 870C15 861.716 21.7157 855 30 855C38.2843 855 45 861.716 45 870Z" fill="#517D56"/>
<path d="M45 30C45 38.2843 38.2843 45 30 45C21.7157 45 15 38.2843 15 30C15 21.7157 21.7157 15 30 15C38.2843 15 45 21.7157 45 30Z" fill="#517D56"/>
<path d="M60 98.189L2.16253e-05 68.9998L2.03494e-05 98.189L1.90735e-05 127.378L60 98.189Z" fill="#517D56"/>
<path d="M60 156.973L2.16607e-05 127.378L2.03671e-05 156.973L1.90735e-05 186.567L60 156.973Z" fill="#517D56"/>
<path d="M60 215.756L2.16253e-05 186.567L2.03494e-05 215.756L1.90735e-05 244.946L60 215.756Z" fill="#517D56"/>
<path d="M60 274.135L2.16253e-05 244.946L2.03494e-05 274.135L1.90735e-05 303.324L60 274.135Z" fill="#517D56"/>
<path d="M60 332.919L2.16607e-05 303.324L2.03671e-05 332.919L1.90735e-05 362.513L60 332.919Z" fill="#517D56"/>
<path d="M60 391.703L2.16253e-05 362.513L2.03494e-05 391.703L1.90735e-05 420.892L60 391.703Z" fill="#517D56"/>
<path d="M60 450.486L2.16607e-05 420.892L2.03671e-05 450.486L1.90735e-05 480.081L60 450.486Z" fill="#517D56"/>
<path d="M60 509.27L2.16253e-05 480.081L2.03494e-05 509.27L1.90735e-05 538.459L60 509.27Z" fill="#517D56"/>
<path d="M60 567.648L2.16253e-05 538.459L2.03494e-05 567.648L1.90735e-05 596.838L60 567.648Z" fill="#517D56"/>
<path d="M60 626.432L2.16607e-05 596.837L2.03671e-05 626.432L1.90735e-05 656.027L60 626.432Z" fill="#517D56"/>
<path d="M60 685.216L2.16253e-05 656.027L2.03494e-05 685.216L1.90735e-05 714.405L60 685.216Z" fill="#517D56"/>
<path d="M60 743.595L2.16253e-05 714.406L2.03494e-05 743.595L1.90735e-05 772.784L60 743.595Z" fill="#517D56"/>
<path d="M60 802.378L2.16607e-05 772.784L2.03671e-05 802.378L1.90735e-05 831.973L60 802.378Z" fill="#517D56"/>
</svg>
