<svg width="60" height="900" viewBox="0 0 60 900" fill="none" xmlns="http://www.w3.org/2000/svg">
<path d="M60 900L0 900L-7.86805e-05 5.24537e-06L59.9999 0L60 900Z" fill="#2D517F"/>
<path d="M15 30C15 21.7157 21.7157 15 30 15C38.2843 15 45 21.7157 45 30C45 38.2843 38.2843 45 30 45C21.7157 45 15 38.2843 15 30Z" fill="#517D56"/>
<path d="M15 870C15 861.716 21.7157 855 30 855C38.2843 855 45 861.716 45 870C45 878.284 38.2843 885 30 885C21.7157 885 15 878.284 15 870Z" fill="#517D56"/>
<path d="M1.2759e-06 801.811L60 831L60 801.811L60 772.622L1.2759e-06 801.811Z" fill="#517D56"/>
<path d="M1.29362e-06 743.027L60 772.622L60 743.027L60 713.433L1.29362e-06 743.027Z" fill="#517D56"/>
<path d="M1.2759e-06 684.244L60 713.433L60 684.244L60 655.054L1.2759e-06 684.244Z" fill="#517D56"/>
<path d="M1.2759e-06 625.865L60 655.054L60 625.865L60 596.676L1.2759e-06 625.865Z" fill="#517D56"/>
<path d="M1.29362e-06 567.081L60 596.676L60 567.081L60 537.487L1.29362e-06 567.081Z" fill="#517D56"/>
<path d="M1.2759e-06 508.297L60 537.487L60 508.297L60 479.108L1.2759e-06 508.297Z" fill="#517D56"/>
<path d="M1.29362e-06 449.514L60 479.108L60 449.514L60 419.919L1.29362e-06 449.514Z" fill="#517D56"/>
<path d="M1.2759e-06 390.73L60 419.919L60 390.73L60 361.541L1.2759e-06 390.73Z" fill="#517D56"/>
<path d="M1.2759e-06 332.352L60 361.541L60 332.352L60 303.162L1.2759e-06 332.352Z" fill="#517D56"/>
<path d="M1.29362e-06 273.568L60 303.163L60 273.568L60 243.973L1.29362e-06 273.568Z" fill="#517D56"/>
<path d="M1.2759e-06 214.784L60 243.973L60 214.784L60 185.595L1.2759e-06 214.784Z" fill="#517D56"/>
<path d="M1.2759e-06 156.405L60 185.594L60 156.405L60 127.216L1.2759e-06 156.405Z" fill="#517D56"/>
<path d="M1.29362e-06 97.6217L60 127.216L60 97.6217L60 68.0271L1.29362e-06 97.6217Z" fill="#517D56"/>
</svg>
