<svg width="60" height="900" viewBox="0 0 60 900" fill="none" xmlns="http://www.w3.org/2000/svg">
<path d="M0 0H60V900H0V0Z" fill="#EFB852"/>
<path d="M45 870C45 878.284 38.2843 885 30 885C21.7157 885 15 878.284 15 870C15 861.716 21.7157 855 30 855C38.2843 855 45 861.716 45 870Z" fill="#2D517F"/>
<path d="M45 30C45 38.2843 38.2843 45 30 45C21.7157 45 15 38.2843 15 30C15 21.7157 21.7157 15 30 15C38.2843 15 45 21.7157 45 30Z" fill="#2D517F"/>
<path d="M30 597L60 733.5V841H0V733.5L30 597Z" fill="#D84E00"/>
<path d="M30 303L1.19332e-05 166.5L1.36143e-05 60L60 60L60 166.5L30 303Z" fill="#D84E00"/>
<path d="M30 557L7 449L30 449L53 449L30 557Z" fill="#D84E00"/>
<path d="M30 343L53 449H30H7.00001L30 343Z" fill="#D84E00"/>
<path d="M45 323C45 331.284 38.2843 338 30 338C21.7157 338 15 331.284 15 323C15 314.716 21.7157 308 30 308C38.2843 308 45 314.716 45 323Z" fill="#517D56"/>
<path d="M45 577C45 585.284 38.2843 592 30 592C21.7157 592 15 585.284 15 577C15 568.716 21.7157 562 30 562C38.2843 562 45 568.716 45 577Z" fill="#517D56"/>
</svg>
