<svg width="61" height="900" viewBox="0 0 61 900" fill="none" xmlns="http://www.w3.org/2000/svg">
<path d="M0 0H60V900H0V0Z" fill="#C5A4DD"/>
<path d="M45 870C45 878.284 38.2843 885 30 885C21.7157 885 15 878.284 15 870C15 861.716 21.7157 855 30 855C38.2843 855 45 861.716 45 870Z" fill="#ECE1CF"/>
<path d="M45 30C45 38.2843 38.2843 45 30 45C21.7157 45 15 38.2843 15 30C15 21.7157 21.7157 15 30 15C38.2843 15 45 21.7157 45 30Z" fill="#ECE1CF"/>
<path d="M37.619 163.981C25.2588 176.341 11.8988 183.021 7.77876 178.901C3.65868 174.781 10.3387 161.421 22.6989 149.061C35.0591 136.7 48.4191 130.02 52.5392 134.14C56.6592 138.261 49.9793 151.621 37.619 163.981Z" fill="#D84E00"/>
<path d="M37.619 293.749C25.2588 306.109 11.8988 312.789 7.77876 308.669C3.65868 304.549 10.3387 291.189 22.6989 278.829C35.0591 266.468 48.4191 259.788 52.5392 263.908C56.6592 268.028 49.9793 281.388 37.619 293.749Z" fill="#D84E00"/>
<path d="M37.619 423.515C25.2588 435.875 11.8988 442.555 7.77876 438.435C3.65868 434.315 10.3387 420.955 22.6989 408.594C35.0591 396.234 48.4191 389.554 52.5392 393.674C56.6592 397.794 49.9793 411.154 37.619 423.515Z" fill="#D84E00"/>
<path d="M37.62 553.28C25.2598 565.641 11.8998 572.321 7.77974 568.201C3.65966 564.08 10.3396 550.721 22.6999 538.36C35.0601 526 48.4201 519.32 52.5401 523.44C56.6602 527.56 49.9803 540.92 37.62 553.28Z" fill="#D84E00"/>
<path d="M37.6786 682.28C25.3184 694.641 11.9584 701.321 7.83833 697.201C3.71825 693.08 10.3982 679.721 22.7585 667.36C35.1187 655 48.4787 648.32 52.5987 652.44C56.7188 656.56 50.0388 669.92 37.6786 682.28Z" fill="#D84E00"/>
<path d="M37.7079 811.28C25.3477 823.641 11.9877 830.321 7.86763 826.201C3.74755 822.08 10.4275 808.721 22.7878 796.36C35.148 784 48.508 777.32 52.628 781.44C56.7481 785.56 50.0681 798.92 37.7079 811.28Z" fill="#D84E00"/>
<path d="M22.3793 104.3C10.0191 91.9401 3.33913 78.5802 7.45921 74.4601C11.5793 70.34 24.9392 77.02 37.2995 89.3802C49.6597 101.74 56.3397 115.1 52.2196 119.221C48.0995 123.341 34.7396 116.661 22.3793 104.3Z" fill="#D84E00"/>
<path d="M22.3793 234.07C10.0191 221.71 3.33913 208.35 7.45921 204.23C11.5793 200.11 24.9392 206.79 37.2995 219.15C49.6597 231.51 56.3397 244.87 52.2196 248.99C48.0995 253.11 34.7396 246.431 22.3793 234.07Z" fill="#D84E00"/>
<path d="M22.3793 363.836C10.0191 351.476 3.33913 338.116 7.45921 333.996C11.5793 329.876 24.9392 336.556 37.2995 348.916C49.6597 361.276 56.3397 374.636 52.2196 378.756C48.0995 382.876 34.7396 376.196 22.3793 363.836Z" fill="#D84E00"/>
<path d="M22.3793 493.602C10.0191 481.242 3.33913 467.882 7.45921 463.762C11.5793 459.642 24.9392 466.322 37.2995 478.682C49.6597 491.042 56.3397 504.402 52.2196 508.522C48.0995 512.642 34.7396 505.962 22.3793 493.602Z" fill="#D84E00"/>
<path d="M22.4379 622.602C10.0777 610.242 3.39772 596.882 7.51781 592.762C11.6379 588.642 24.9978 595.322 37.3581 607.682C49.7183 620.042 56.3983 633.402 52.2782 637.522C48.1581 641.642 34.7982 634.962 22.4379 622.602Z" fill="#D84E00"/>
<path d="M22.4672 751.602C10.107 739.242 3.42702 725.882 7.5471 721.762C11.6672 717.642 25.0271 724.322 37.3874 736.682C49.7476 749.042 56.4276 762.402 52.3075 766.522C48.1874 770.642 34.8275 763.962 22.4672 751.602Z" fill="#D84E00"/>
</svg>
