<svg width="61" height="900" viewBox="0 0 61 900" fill="none" xmlns="http://www.w3.org/2000/svg">
<path d="M60.0869 900L0.0869141 900L0.0868354 2.38434e-06L60.0868 -2.86102e-06L60.0869 900Z" fill="#C5A4DD"/>
<path d="M15.0869 30C15.0869 21.7157 21.8026 15 30.0869 15C38.3712 15 45.0869 21.7157 45.0869 30C45.0869 38.2843 38.3712 45 30.0869 45C21.8026 45 15.0869 38.2843 15.0869 30Z" fill="#ECE1CF"/>
<path d="M15.0869 870C15.0869 861.716 21.8026 855 30.0869 855C38.3712 855 45.0869 861.716 45.0869 870C45.0869 878.284 38.3712 885 30.0869 885C21.8026 885 15.0869 878.284 15.0869 870Z" fill="#ECE1CF"/>
<path d="M22.4679 736.019C34.8281 723.659 48.1881 716.979 52.3081 721.099C56.4282 725.219 49.7483 738.579 37.388 750.939C25.0278 763.3 11.6678 769.98 7.54774 765.86C3.42766 761.739 10.1076 748.379 22.4679 736.019Z" fill="#D84E00"/>
<path d="M22.4679 606.251C34.8281 593.891 48.1881 587.211 52.3081 591.331C56.4282 595.451 49.7483 608.811 37.388 621.171C25.0278 633.532 11.6678 640.212 7.54774 636.092C3.42766 631.972 10.1076 618.612 22.4679 606.251Z" fill="#D84E00"/>
<path d="M22.4679 476.485C34.8281 464.125 48.1881 457.445 52.3081 461.565C56.4282 465.685 49.7483 479.045 37.388 491.406C25.0278 503.766 11.6678 510.446 7.54774 506.326C3.42766 502.206 10.1076 488.846 22.4679 476.485Z" fill="#D84E00"/>
<path d="M22.4669 346.72C34.8271 334.359 48.1871 327.679 52.3072 331.799C56.4273 335.92 49.7473 349.279 37.387 361.64C25.0268 374 11.6669 380.68 7.54677 376.56C3.42669 372.44 10.1067 359.08 22.4669 346.72Z" fill="#D84E00"/>
<path d="M22.4083 217.72C34.7686 205.359 48.1285 198.679 52.2486 202.799C56.3687 206.92 49.6887 220.279 37.3284 232.64C24.9682 245 11.6083 251.68 7.48817 247.56C3.36809 243.44 10.0481 230.08 22.4083 217.72Z" fill="#D84E00"/>
<path d="M22.379 88.7196C34.7393 76.3593 48.0992 69.6793 52.2193 73.7994C56.3394 77.9195 49.6594 91.2794 37.2991 103.64C24.9389 116 11.579 122.68 7.45888 118.56C3.3388 114.44 10.0188 101.08 22.379 88.7196Z" fill="#D84E00"/>
<path d="M37.7076 795.7C50.0678 808.06 56.7478 821.42 52.6277 825.54C48.5076 829.66 35.1477 822.98 22.7874 810.62C10.4272 798.26 3.74721 784.9 7.86729 780.78C11.9874 776.659 25.3473 783.339 37.7076 795.7Z" fill="#D84E00"/>
<path d="M37.7076 665.93C50.0678 678.29 56.7478 691.65 52.6277 695.77C48.5076 699.89 35.1477 693.21 22.7874 680.85C10.4272 668.49 3.74721 655.13 7.86729 651.01C11.9874 646.89 25.3473 653.57 37.7076 665.93Z" fill="#D84E00"/>
<path d="M37.7076 536.164C50.0678 548.524 56.7478 561.884 52.6277 566.004C48.5076 570.124 35.1477 563.444 22.7874 551.084C10.4272 538.724 3.74721 525.364 7.86729 521.244C11.9874 517.124 25.3473 523.804 37.7076 536.164Z" fill="#D84E00"/>
<path d="M37.7076 406.398C50.0678 418.758 56.7478 432.118 52.6277 436.238C48.5076 440.358 35.1477 433.678 22.7874 421.318C10.4272 408.958 3.74721 395.598 7.86729 391.478C11.9874 387.358 25.3473 394.038 37.7076 406.398Z" fill="#D84E00"/>
<path d="M37.649 277.398C50.0092 289.758 56.6892 303.118 52.5691 307.238C48.449 311.358 35.0891 304.678 22.7288 292.318C10.3686 279.958 3.68862 266.598 7.8087 262.478C11.9288 258.358 25.2887 265.038 37.649 277.398Z" fill="#D84E00"/>
<path d="M37.6197 148.398C49.9799 160.758 56.6599 174.118 52.5398 178.238C48.4197 182.358 35.0598 175.678 22.6995 163.318C10.3393 150.958 3.65932 137.598 7.7794 133.478C11.8995 129.358 25.2594 136.038 37.6197 148.398Z" fill="#D84E00"/>
</svg>
