<svg width="173" height="35" viewBox="0 0 173 35" fill="none" xmlns="http://www.w3.org/2000/svg">
<path d="M155.698 0C146.144 0 138.398 7.74535 138.398 17.3C138.398 26.8546 146.144 34.6 155.698 34.6C165.253 34.6 172.998 26.8546 172.998 17.3C172.998 7.74535 165.253 0 155.698 0ZM162.352 19.5184C162.352 19.5184 163.882 21.0285 164.258 21.7295C164.269 21.7439 164.275 21.7584 164.278 21.7656C164.431 22.0233 164.467 22.2233 164.392 22.3729C164.266 22.6215 163.833 22.7441 163.685 22.7549H160.982C160.795 22.7549 160.402 22.7062 159.926 22.3783C159.56 22.1224 159.2 21.7025 158.848 21.2934C158.324 20.6843 157.87 20.1581 157.412 20.1581C157.354 20.158 157.296 20.1671 157.241 20.1851C156.895 20.2969 156.452 20.7906 156.452 22.1062C156.452 22.517 156.127 22.7531 155.898 22.7531H154.66C154.239 22.7531 152.042 22.6053 150.096 20.5528C147.713 18.0389 145.569 12.9966 145.551 12.9498C145.416 12.6236 145.695 12.4488 146 12.4488H148.73C149.094 12.4488 149.213 12.6704 149.296 12.8669C149.393 13.0957 149.75 14.0058 150.335 15.0294C151.285 16.6981 151.867 17.3757 152.334 17.3757C152.421 17.3747 152.507 17.3524 152.584 17.3108C153.194 16.972 153.08 14.8005 153.053 14.35C153.053 14.2653 153.051 13.3787 152.739 12.9534C152.516 12.6452 152.136 12.5281 151.905 12.4848C151.998 12.356 152.121 12.2515 152.264 12.1803C152.682 11.9712 153.435 11.9406 154.183 11.9406H154.599C155.41 11.9514 155.619 12.0037 155.913 12.0776C156.508 12.2199 156.52 12.6038 156.468 13.9175C156.452 14.2905 156.435 14.7122 156.435 15.2096C156.435 15.3177 156.43 15.433 156.43 15.5556C156.412 16.2242 156.39 16.9828 156.863 17.2946C156.924 17.3332 156.995 17.3538 157.068 17.3541C157.232 17.3541 157.726 17.3541 159.063 15.06C159.475 14.3216 159.834 13.5543 160.135 12.7642C160.162 12.7173 160.241 12.5731 160.335 12.5173C160.404 12.482 160.481 12.4641 160.559 12.465H163.768C164.118 12.465 164.357 12.5173 164.402 12.6524C164.482 12.8669 164.388 13.521 162.923 15.5051L162.269 16.3683C160.941 18.1091 160.941 18.1974 162.352 19.5184Z" fill="black"/>
<path d="M79.2881 0C73.7247 0 69.1992 4.52965 69.1992 10.0945V24.5111C69.1992 30.0745 73.7289 34.6 79.2937 34.6H93.7104C99.2738 34.6 103.799 30.0703 103.799 24.5055V10.0889C103.799 4.52546 99.2696 0 93.7047 0H79.2881ZM96.5909 5.76667C97.3867 5.76667 98.0326 6.41253 98.0326 7.20833C98.0326 8.00413 97.3867 8.65 96.5909 8.65C95.7951 8.65 95.1492 8.00413 95.1492 7.20833C95.1492 6.41253 95.7951 5.76667 96.5909 5.76667ZM86.4992 8.65C91.2697 8.65 95.1492 12.5295 95.1492 17.3C95.1492 22.0705 91.2697 25.95 86.4992 25.95C81.7287 25.95 77.8492 22.0705 77.8492 17.3C77.8492 12.5295 81.7287 8.65 86.4992 8.65ZM86.4992 11.5333C84.9698 11.5333 83.503 12.1409 82.4216 13.2224C81.3401 14.3038 80.7326 15.7706 80.7326 17.3C80.7326 18.8294 81.3401 20.2962 82.4216 21.3776C83.503 22.4591 84.9698 23.0667 86.4992 23.0667C88.0286 23.0667 89.4954 22.4591 90.5769 21.3776C91.6583 20.2962 92.2659 18.8294 92.2659 17.3C92.2659 15.7706 91.6583 14.3038 90.5769 13.2224C89.4954 12.1409 88.0286 11.5333 86.4992 11.5333Z" fill="black"/>
<path d="M17.3 0C7.74607 0 0 7.78598 0 17.3891C0 26.1069 6.38947 33.306 14.7136 34.5638V21.9972H10.4333V17.4268H14.7136V14.3851C14.7136 9.34955 17.1544 7.13968 21.3179 7.13968C23.3118 7.13968 24.367 7.28894 24.8659 7.3556V11.345H22.0258C20.2583 11.345 19.6413 13.0302 19.6413 14.9286V17.4268H24.8212L24.1191 21.9972H19.6413V34.6C28.0851 33.4494 34.6 26.1924 34.6 17.3891C34.6 7.78598 26.8539 0 17.3 0Z" fill="black"/>
</svg>
