<svg width="171.45" height="22.26" viewBox="0 0 301 39" preserveAspectRatio="none" xmlns="http://www.w3.org/2000/svg">
<path d="M39.181 1.36133L27.4576 20.1805L39.181 38.9998H28.6916L20.0533 25.1167H9.37876V38.9998H0V1.36133H9.37876V15.2444H20.0533L28.6916 1.36133H39.181Z" fill="#101010"/>
<path d="M121.329 1.36133H130.892V38.9998H121.329V25.055H101.09V38.9998H91.6497V1.36133H101.09V15.2444H121.329V1.36133Z" fill="#101010"/>
<path d="M163.368 23.5742H137.083V13.7018H163.368V23.5742Z" fill="#101010"/>
<path d="M208.742 1.36133L197.019 20.1805L208.742 38.9998H198.253L189.614 25.1167H178.94V38.9998H169.561V1.36133H178.94V15.2444H189.614L198.253 1.36133H208.742Z" fill="#101010"/>
<path d="M290.889 1.36133H300.453V38.9998H290.889V25.055H270.651V38.9998H261.211V1.36133H270.651V15.2444H290.889V1.36133Z" fill="#101010"/>
<path d="M89.5709 19.4216C89.5709 30.0708 77.0075 38.7036 61.5096 38.7036C46.0117 38.7036 33.4482 30.0708 33.4482 19.4216C33.4482 8.77249 46.0117 0.139648 61.5096 0.139648C77.0075 0.139648 89.5709 8.77249 89.5709 19.4216Z" fill="white"/>
<path d="M259.038 19.282C259.038 29.9311 246.474 38.564 230.976 38.564C215.479 38.564 202.915 29.9311 202.915 19.282C202.915 8.63284 215.479 0 230.976 0C246.474 0 259.038 8.63284 259.038 19.282Z" fill="white"/>
<path d="M67.858 19.4216C67.858 30.0708 65.0152 38.7036 61.5086 38.7036C58.0019 38.7036 55.1592 30.0708 55.1592 19.4216C55.1592 8.77249 58.0019 0.139648 61.5086 0.139648C65.0152 0.139648 67.858 8.77249 67.858 19.4216Z" fill="#101010"/>
<path d="M237.327 19.282C237.327 29.9311 234.484 38.564 230.977 38.564C227.471 38.564 224.628 29.9311 224.628 19.282C224.628 8.63284 227.471 0 230.977 0C234.484 0 237.327 8.63284 237.327 19.282Z" fill="#101010"/>
</svg>
