<svg width="47" height="37" viewBox="0 0 47 37" fill="none" xmlns="http://www.w3.org/2000/svg">
<path d="M27.2168 -5.96046e-08C27.2168 2.42945 27.7285 4.83512 28.7227 7.07964C29.7169 9.32417 31.1742 11.3636 33.0112 13.0815C34.8483 14.7994 37.0292 16.1621 39.4294 17.0918C41.8296 18.0215 44.4022 18.5 47.0002 18.5" stroke="#7C7C7C" stroke-width="2"/>
<path d="M27.2168 37C27.2168 34.5705 27.7285 32.1649 28.7227 29.9204C29.7169 27.6758 31.1742 25.6364 33.0112 23.9185C34.8483 22.2006 37.0292 20.8379 39.4294 19.9082C41.8296 18.9785 44.4022 18.5 47.0002 18.5" stroke="#7C7C7C" stroke-width="2"/>
<line x1="-8.69544e-08" y1="18.5" x2="42.3609" y2="18.5" stroke="#7C7C7C" stroke-width="2"/>
</svg>
